# xmcd
#
# Track frame offsets:
#	150
#	14994
#	26105
#	39757
#	56471
#	72725
#	88710
#	102297
#	117552
#	134656
#	158504
#	170154
#	187638
#	205134
#	223725
#	243369
#	252465
#	264103
#	278265
#	289887
#	308586
#	317770
#	328560
#	343131
#
# Disc length: 4716 seconds
#
# Revision: 0
# Processed by: cddbd v1.5.2PL0 Copyright (c) Steve Scherf et al.
# Submitted via: VUPlayer 2.44
#
DISCID=65126a18
DTITLE=Nits - 1st Album
DYEAR=1978
DGENRE=Eclectic
TTITLE0=Nits - Rails and Rain
TTITLE1=Nits - Tutti Ragazzi
TTITLE2=Nits - Mister Mister
TTITLE3=Nits - Fantasies and Factories
TTITLE4=Nits - So in Love
TTITLE5=Nits - London Letters
TTITLE6=Nits - Yes or No
TTITLE7=Nits - After Thoughts
TTITLE8=Nits - Amarilla
TTITLE9=Nits - Dancing Girl - Red Cat
TTITLE10=Nits - Susan My Love
TTITLE11=Nits - Caravan
TTITLE12=Nits - Ronald Razorblade
TTITLE13=Nits - Looking for a friend
TTITLE14=Nits - Tell me baby
TTITLE15=Nits - Skateboard Boy
TTITLE16=Nits - The young reporter
TTITLE17=Nits - Yes Or No (Demo, 1977)
TTITLE18=Nits - Tutti Ragazzi (Demo, 1977)
TTITLE19=Nits - Loudspeaker (Demo, 1977)
TTITLE20=Nits - Lies (Demo, 1977)
TTITLE21=Nits - Needles And Scissors (Demo, 1979)
TTITLE22=Nits - Yes or no (single)
TTITLE23=Nits - Tutti regazzi (Live)
EXTD=
EXTT0=
EXTT1=
EXTT2=
EXTT3=
EXTT4=
EXTT5=
EXTT6=
EXTT7=
EXTT8=
EXTT9=
EXTT10=
EXTT11=
EXTT12=bonus track
EXTT13=bonus track
EXTT14=bonus track
EXTT15=bonus track
EXTT16=bonus track
EXTT17=bonus track
EXTT18=bonus track
EXTT19=bonus track
EXTT20=bonus track
EXTT21=bonus track
EXTT22=bonus track
EXTT23=bonus track
PLAYORDER=
